<?xml version="1.0" encoding="UTF-8" standalone="no"?>
<!-- Generator: Adobe Illustrator 14.0.0, SVG Export Plug-In . SVG Version: 6.00 Build 43363)  -->

<svg
   xmlns:dc="http://purl.org/dc/elements/1.1/"
   xmlns:cc="http://creativecommons.org/ns#"
   xmlns:rdf="http://www.w3.org/1999/02/22-rdf-syntax-ns#"
   xmlns:svg="http://www.w3.org/2000/svg"
   xmlns="http://www.w3.org/2000/svg"
   xmlns:sodipodi="http://sodipodi.sourceforge.net/DTD/sodipodi-0.dtd"
   xmlns:inkscape="http://www.inkscape.org/namespaces/inkscape"
   version="1.1"
   id="Scratch_Cat_A"
   x="0px"
   y="0px"
   width="50"
   height="50"
   viewBox="0 -2 50.000001 50"
   enable-background="new 0 -2 94.227 104.333"
   xml:space="preserve"
   sodipodi:docname="Scratch.svg"
   inkscape:version="0.92.2 (5c3e80d, 2017-08-06)"
   inkscape:export-filename="C:\Users\Steven\Desktop\scratch.png"
   inkscape:export-xdpi="192"
   inkscape:export-ydpi="192"><metadata
     id="metadata32"><rdf:RDF><cc:Work
         rdf:about=""><dc:format>image/svg+xml</dc:format><dc:type
           rdf:resource="http://purl.org/dc/dcmitype/StillImage" /><dc:title /></cc:Work></rdf:RDF></metadata><defs
     id="defs30" /><sodipodi:namedview
     pagecolor="#ffffff"
     bordercolor="#666666"
     borderopacity="1"
     objecttolerance="10"
     gridtolerance="10"
     guidetolerance="10"
     inkscape:pageopacity="0"
     inkscape:pageshadow="2"
     inkscape:window-width="1309"
     inkscape:window-height="980"
     id="namedview28"
     showgrid="false"
     inkscape:zoom="9.0479522"
     inkscape:cx="8.579672"
     inkscape:cy="23.938106"
     inkscape:window-x="44"
     inkscape:window-y="39"
     inkscape:window-maximized="0"
     inkscape:current-layer="Head"
     inkscape:measure-start="0,0"
     inkscape:measure-end="0,0" /><g
     id="Head"
     transform="matrix(0.57249373,0,0,0.62420274,-4.8104435,10.707765)"><rect
       style="fill:#f9edbf;fill-opacity:1;stroke:none;stroke-width:0;stroke-miterlimit:4;stroke-dasharray:none;stroke-opacity:0"
       id="rect4561"
       width="82.43409"
       height="75.60524"
       x="10.912316"
       y="-18.163254"
       ry="37.80262" /><path
       style="fill:#faa51d;stroke:#000000;stroke-width:1.53303242;stroke-miterlimit:4;stroke-dasharray:none"
       inkscape:connector-curvature="0"
       d="m 83.625259,26.872123 c -1.361727,-5.852943 -8.224947,-6.880634 -8.224947,-6.880634 0,0 0.162815,-4.857934 -2.431129,-9.393577 C 71.252222,7.5956341 65.243782,3.296941 65.243782,3.296941 L 62.603584,-7.188786 55.730188,-0.54328665 53.08999,0.45989328 C 51.666281,0.33007 48.725429,0.17664258 47.090801,0.25381018 42.716065,0.45807761 38.555023,2.1022029 38.555023,2.1022029 l -11.91327,-7.7385567 2.06572,17.1675398 c 0.597607,-0.713575 -9.762442,11.622362 -3.216528,21.988251 3.070364,4.866104 9.397959,9.191126 14.430432,10.846146 3.757703,1.234681 10.021467,1.576944 12.951217,1.576944 2.44778,0 7.186076,-0.491151 9.546897,-0.88879 2.794688,-0.471178 5.993639,-1.478897 9.30175,-2.821614 8.78555,-3.571503 13.263896,-9.50706 11.904018,-15.36 z M 40.441276,3.95332 38.558724,2.1022029 M 53.315711,0.32189936 c 1.850174,0.30231574 4.008402,1.24013004 4.008402,1.24013004"
       id="Head_Fill" /><path
       style="fill:#ffffff;stroke-width:0.90949577"
       inkscape:connector-curvature="0"
       d="m 74.868558,20.186932 -2.655519,-2.788277 -8.399777,2.388029 c 0,0.009 -0.0046,1.452922 -1.308863,2.632129 -0.595441,0.538451 -1.459108,1.021262 -2.717277,1.287794 -4.028906,0.853447 -10.334498,-2.043421 -10.334498,-2.043421 l -7.17479,3.066478 c 0,0 -4.372714,0.468454 -6.677053,2.652771 -0.767805,0.728702 -1.306098,1.646764 -1.375228,2.802636 -0.454416,7.536521 8.000664,11.89259 13.902537,14.001523 1.638846,0.585117 2.201104,0.763704 3.200266,1.022159 0,0 6.842964,-0.174995 9.384188,-0.527682 2.794703,-0.387684 6.984913,-1.57766 10.281039,-2.904046 8.754643,-3.529545 13.45826,-8.995722 12.101466,-14.781378 -1.358638,-5.789246 -8.226491,-6.808715 -8.226491,-6.808715 z"
       id="Muzzle" /><path
       style="fill:#ffffff;stroke:#000000;stroke-width:1.53762758;stroke-miterlimit:4;stroke-dasharray:none"
       inkscape:connector-curvature="0"
       d="m 48.644022,13.718606 c 2.706805,4.09161 2.421877,9.007021 -0.63091,10.973368 C 44.95755,26.6638 40.286787,24.940393 37.582757,20.848783 34.874102,16.757175 35.155329,11.843591 38.209966,9.8735901 41.264603,7.9045031 45.934442,9.625171 48.644022,13.718606"
       id="Eyeball_1_" /><path
       style="stroke-width:2.0720067;stroke-miterlimit:4;stroke-dasharray:none"
       inkscape:connector-curvature="0"
       d="m 46.989967,18.52286 c 0,1.303956 -1.021309,2.36063 -2.290634,2.36063 -1.261691,0 -2.294448,-1.059087 -2.294448,-2.36063 0,-1.302748 1.032757,-2.360628 2.294448,-2.360628 1.26678,0 2.290634,1.05788 2.290634,2.360628"
       id="Pupil_1_" /><path
       style="fill:#ffffff;stroke:#000000;stroke-width:1.53762758;stroke-miterlimit:4;stroke-dasharray:none"
       inkscape:connector-curvature="0"
       d="m 70.58986,10.904713 c 2.705878,4.090695 3.03706,8.602426 0.455142,10.268294 -2.583767,1.666784 -6.643049,-0.504144 -9.347078,-4.59758 -2.71328,-4.09161 -2.848343,-8.3421339 -0.264575,-10.0089166 2.578217,-1.6649563 6.448781,0.2447658 9.156511,4.3382026"
       id="Eyeball" /><path
       id="Nose"
       d="m 59.650706,22.218742 c 1.715112,0 4.214696,-0.259378 4.344208,0.519672 0.134138,0.780875 -1.580973,3.838623 -2.763234,3.968313 -1.185962,0.129689 -5.666158,-2.149009 -5.729988,-3.579245 -0.06846,-1.430237 2.566191,-0.90874 4.149014,-0.90874"
       inkscape:connector-curvature="0"
       style="fill:#5e4a42;stroke:#000000;stroke-width:1.54751313;stroke-miterlimit:4;stroke-dasharray:none" /><path
       id="Whisker_3_"
       d="m 24.695371,26.295739 c -0.02128,-0.02038 -2.203557,-2.109527 -5.552372,-4.029675 -3.711448,-2.129903 -5.793819,-2.708823 -5.813246,-2.714816 l 0.226646,-1.408349 c 0.08788,0.02397 2.202632,0.60649 6.036192,2.807109 3.470002,1.990864 5.673559,4.103987 5.765142,4.192684 z"
       inkscape:connector-curvature="0"
       style="stroke-width:1.76148605;stroke-miterlimit:4;stroke-dasharray:none" /><path
       id="Whisker_2_"
       d="m 19.031989,31.02957 c -1.882552,0 -4.710543,-0.326418 -4.845606,-0.341793 l 0.09898,-1.413295 c 0.03793,0.0047 3.781756,0.43404 5.445988,0.314591 1.683658,-0.122998 5.00657,-0.683586 5.038948,-0.6895 l 0.145239,1.4062 c -0.136914,0.02366 -3.395069,0.572415 -5.122207,0.698961 -0.223871,0.01774 -0.482895,0.02483 -0.761346,0.02483 z"
       inkscape:connector-curvature="0"
       style="stroke-width:1.74974906;stroke-miterlimit:4;stroke-dasharray:none" /><path
       id="Whisker_1_"
       d="m 79.991518,25.266444 -0.179467,-1.268749 c 0.04255,-0.0075 4.185094,-0.79658 6.254513,-1.630635 2.380249,-0.957183 4.001926,-2.585678 4.019503,-2.601737 l 0.731743,0.965748 c -0.07216,0.0728 -1.802069,1.810509 -4.386762,2.849061 -2.159153,0.871529 -6.266539,1.653121 -6.43953,1.686312 z"
       inkscape:connector-curvature="0"
       style="stroke-width:1.66483665;stroke-miterlimit:4;stroke-dasharray:none" /><path
       id="Whisker"
       d="m 88.342278,32.119889 c -0.751171,0 -1.76229,-0.04245 -2.950103,-0.197664 -2.643898,-0.346821 -5.165684,-1.672258 -5.27207,-1.729253 l 0.416289,-1.348478 c 0.02497,0.01333 2.484784,1.303611 4.965867,1.629816 2.471832,0.32378 4.179543,0.134605 4.195269,0.133392 l 0.09621,1.449129 c -0.03978,0.0048 -0.566153,0.06305 -1.451461,0.06305 z"
       inkscape:connector-curvature="0"
       style="stroke-width:0;stroke-miterlimit:4;stroke-dasharray:none" /><path
       id="Mouth"
       d="m 48.348644,30.587957 c 0,0 10.028081,0.508236 13.704121,0.432788 3.673353,-0.07481 10.138819,-0.81014 10.138819,-0.81014 0,0 -4.608294,10.753211 -13.619629,10.43266 C 49.560469,40.32558 48.246568,35.082858 48.348644,30.587957 Z"
       inkscape:connector-curvature="0"
       style="fill:none;stroke:#231f20;stroke-width:1.54751313;stroke-miterlimit:4;stroke-dasharray:none" /><path
       style="stroke-width:2.0720067;stroke-miterlimit:4;stroke-dasharray:none"
       inkscape:connector-curvature="0"
       d="m 70.045725,15.429773 c 0,1.303957 -1.021309,2.360631 -2.290632,2.360631 -1.261692,0 -2.294449,-1.059087 -2.294449,-2.360631 0,-1.302746 1.032757,-2.360628 2.294449,-2.360628 1.26678,0 2.290632,1.057882 2.290632,2.360628"
       id="Pupil_1_-4" /></g></svg>